<mxfile host="app.diagrams.net" modified="2024-04-21T17:00:12.770Z" agent="Mozilla/5.0 (X11; Linux x86_64) AppleWebKit/537.36 (KHTML, like Gecko) Chrome/124.0.0.0 Safari/537.36" etag="X11keBkmDa47Jl2rchJe" version="24.2.7" type="github">
  <diagram id="C5RBs43oDa-KdzZeNtuy" name="Page-1">
    <mxGraphModel dx="993" dy="1210" grid="1" gridSize="10" guides="1" tooltips="1" connect="1" arrows="1" fold="1" page="1" pageScale="1" pageWidth="827" pageHeight="1169" math="0" shadow="0">
      <root>
        <mxCell id="WIyWlLk6GJQsqaUBKTNV-0" />
        <mxCell id="WIyWlLk6GJQsqaUBKTNV-1" parent="WIyWlLk6GJQsqaUBKTNV-0" />
        <mxCell id="LmbCgK1vUzO_-XYj1HLt-5" style="edgeStyle=orthogonalEdgeStyle;rounded=0;orthogonalLoop=1;jettySize=auto;html=1;exitX=0.5;exitY=1;exitDx=0;exitDy=0;entryX=0;entryY=0.5;entryDx=0;entryDy=0;" edge="1" parent="WIyWlLk6GJQsqaUBKTNV-1" source="LmbCgK1vUzO_-XYj1HLt-0" target="LmbCgK1vUzO_-XYj1HLt-2">
          <mxGeometry relative="1" as="geometry" />
        </mxCell>
        <mxCell id="LmbCgK1vUzO_-XYj1HLt-6" style="edgeStyle=orthogonalEdgeStyle;rounded=0;orthogonalLoop=1;jettySize=auto;html=1;exitX=0.5;exitY=1;exitDx=0;exitDy=0;entryX=0;entryY=0.5;entryDx=0;entryDy=0;" edge="1" parent="WIyWlLk6GJQsqaUBKTNV-1" source="LmbCgK1vUzO_-XYj1HLt-0" target="LmbCgK1vUzO_-XYj1HLt-1">
          <mxGeometry relative="1" as="geometry" />
        </mxCell>
        <mxCell id="LmbCgK1vUzO_-XYj1HLt-13" style="edgeStyle=orthogonalEdgeStyle;rounded=0;orthogonalLoop=1;jettySize=auto;html=1;exitX=1;exitY=0.5;exitDx=0;exitDy=0;entryX=0;entryY=0.5;entryDx=0;entryDy=0;" edge="1" parent="WIyWlLk6GJQsqaUBKTNV-1" source="LmbCgK1vUzO_-XYj1HLt-0" target="LmbCgK1vUzO_-XYj1HLt-8">
          <mxGeometry relative="1" as="geometry" />
        </mxCell>
        <mxCell id="LmbCgK1vUzO_-XYj1HLt-0" value="HÃ¶he" style="rounded=0;whiteSpace=wrap;html=1;fillColor=#dae8fc;strokeColor=#6c8ebf;" vertex="1" parent="WIyWlLk6GJQsqaUBKTNV-1">
          <mxGeometry x="120" y="130" width="120" height="40" as="geometry" />
        </mxCell>
        <mxCell id="LmbCgK1vUzO_-XYj1HLt-14" style="edgeStyle=orthogonalEdgeStyle;rounded=0;orthogonalLoop=1;jettySize=auto;html=1;exitX=1;exitY=0.5;exitDx=0;exitDy=0;entryX=0;entryY=0.5;entryDx=0;entryDy=0;" edge="1" parent="WIyWlLk6GJQsqaUBKTNV-1" source="LmbCgK1vUzO_-XYj1HLt-1" target="LmbCgK1vUzO_-XYj1HLt-9">
          <mxGeometry relative="1" as="geometry" />
        </mxCell>
        <mxCell id="LmbCgK1vUzO_-XYj1HLt-1" value="Hangneigung" style="rounded=0;whiteSpace=wrap;html=1;fillColor=#ffe6cc;strokeColor=#d79b00;" vertex="1" parent="WIyWlLk6GJQsqaUBKTNV-1">
          <mxGeometry x="200" y="180" width="120" height="40" as="geometry" />
        </mxCell>
        <mxCell id="LmbCgK1vUzO_-XYj1HLt-15" style="edgeStyle=orthogonalEdgeStyle;rounded=0;orthogonalLoop=1;jettySize=auto;html=1;exitX=1;exitY=0.5;exitDx=0;exitDy=0;entryX=0;entryY=0.5;entryDx=0;entryDy=0;" edge="1" parent="WIyWlLk6GJQsqaUBKTNV-1" source="LmbCgK1vUzO_-XYj1HLt-2" target="LmbCgK1vUzO_-XYj1HLt-10">
          <mxGeometry relative="1" as="geometry" />
        </mxCell>
        <mxCell id="LmbCgK1vUzO_-XYj1HLt-2" value="Exposition" style="rounded=0;whiteSpace=wrap;html=1;fillColor=#ffe6cc;strokeColor=#d79b00;" vertex="1" parent="WIyWlLk6GJQsqaUBKTNV-1">
          <mxGeometry x="200" y="230" width="120" height="40" as="geometry" />
        </mxCell>
        <mxCell id="LmbCgK1vUzO_-XYj1HLt-16" style="edgeStyle=orthogonalEdgeStyle;rounded=0;orthogonalLoop=1;jettySize=auto;html=1;exitX=1;exitY=0.5;exitDx=0;exitDy=0;entryX=0;entryY=0.5;entryDx=0;entryDy=0;" edge="1" parent="WIyWlLk6GJQsqaUBKTNV-1" source="LmbCgK1vUzO_-XYj1HLt-4" target="LmbCgK1vUzO_-XYj1HLt-11">
          <mxGeometry relative="1" as="geometry" />
        </mxCell>
        <mxCell id="LmbCgK1vUzO_-XYj1HLt-4" value="Landnutzung" style="rounded=0;whiteSpace=wrap;html=1;fillColor=#dae8fc;strokeColor=#6c8ebf;" vertex="1" parent="WIyWlLk6GJQsqaUBKTNV-1">
          <mxGeometry x="120" y="280" width="120" height="40" as="geometry" />
        </mxCell>
        <mxCell id="LmbCgK1vUzO_-XYj1HLt-17" style="edgeStyle=orthogonalEdgeStyle;rounded=0;orthogonalLoop=1;jettySize=auto;html=1;exitX=1;exitY=0.5;exitDx=0;exitDy=0;entryX=0;entryY=0.5;entryDx=0;entryDy=0;" edge="1" parent="WIyWlLk6GJQsqaUBKTNV-1" source="LmbCgK1vUzO_-XYj1HLt-7" target="LmbCgK1vUzO_-XYj1HLt-12">
          <mxGeometry relative="1" as="geometry" />
        </mxCell>
        <mxCell id="LmbCgK1vUzO_-XYj1HLt-7" value="Wasser" style="rounded=0;whiteSpace=wrap;html=1;fillColor=#dae8fc;strokeColor=#6c8ebf;" vertex="1" parent="WIyWlLk6GJQsqaUBKTNV-1">
          <mxGeometry x="120" y="330" width="120" height="40" as="geometry" />
        </mxCell>
        <mxCell id="LmbCgK1vUzO_-XYj1HLt-29" style="edgeStyle=orthogonalEdgeStyle;rounded=0;orthogonalLoop=1;jettySize=auto;html=1;exitX=1;exitY=0.5;exitDx=0;exitDy=0;entryX=0;entryY=0.5;entryDx=0;entryDy=0;" edge="1" parent="WIyWlLk6GJQsqaUBKTNV-1" source="LmbCgK1vUzO_-XYj1HLt-8" target="LmbCgK1vUzO_-XYj1HLt-19">
          <mxGeometry relative="1" as="geometry" />
        </mxCell>
        <mxCell id="LmbCgK1vUzO_-XYj1HLt-38" value="x" style="edgeLabel;html=1;align=center;verticalAlign=middle;resizable=0;points=[];" vertex="1" connectable="0" parent="LmbCgK1vUzO_-XYj1HLt-29">
          <mxGeometry x="-0.0933" y="-3" relative="1" as="geometry">
            <mxPoint as="offset" />
          </mxGeometry>
        </mxCell>
        <mxCell id="LmbCgK1vUzO_-XYj1HLt-8" value="Zuweisung Kategorien 1, 2, 3" style="rounded=0;whiteSpace=wrap;html=1;fillColor=#e1d5e7;strokeColor=#9673a6;" vertex="1" parent="WIyWlLk6GJQsqaUBKTNV-1">
          <mxGeometry x="360" y="130" width="120" height="40" as="geometry" />
        </mxCell>
        <mxCell id="LmbCgK1vUzO_-XYj1HLt-30" style="edgeStyle=orthogonalEdgeStyle;rounded=0;orthogonalLoop=1;jettySize=auto;html=1;exitX=1;exitY=0.5;exitDx=0;exitDy=0;entryX=0;entryY=0.5;entryDx=0;entryDy=0;" edge="1" parent="WIyWlLk6GJQsqaUBKTNV-1" source="LmbCgK1vUzO_-XYj1HLt-9" target="LmbCgK1vUzO_-XYj1HLt-21">
          <mxGeometry relative="1" as="geometry" />
        </mxCell>
        <mxCell id="LmbCgK1vUzO_-XYj1HLt-37" value="x" style="edgeLabel;html=1;align=center;verticalAlign=middle;resizable=0;points=[];" vertex="1" connectable="0" parent="LmbCgK1vUzO_-XYj1HLt-30">
          <mxGeometry x="-0.1733" relative="1" as="geometry">
            <mxPoint as="offset" />
          </mxGeometry>
        </mxCell>
        <mxCell id="LmbCgK1vUzO_-XYj1HLt-9" value="Zuweisung Kategorien 1, 2, 3" style="rounded=0;whiteSpace=wrap;html=1;fillColor=#e1d5e7;strokeColor=#9673a6;" vertex="1" parent="WIyWlLk6GJQsqaUBKTNV-1">
          <mxGeometry x="360" y="180" width="120" height="40" as="geometry" />
        </mxCell>
        <mxCell id="LmbCgK1vUzO_-XYj1HLt-31" style="edgeStyle=orthogonalEdgeStyle;rounded=0;orthogonalLoop=1;jettySize=auto;html=1;exitX=1;exitY=0.5;exitDx=0;exitDy=0;entryX=0;entryY=0.5;entryDx=0;entryDy=0;" edge="1" parent="WIyWlLk6GJQsqaUBKTNV-1" source="LmbCgK1vUzO_-XYj1HLt-10" target="LmbCgK1vUzO_-XYj1HLt-22">
          <mxGeometry relative="1" as="geometry" />
        </mxCell>
        <mxCell id="LmbCgK1vUzO_-XYj1HLt-36" value="x" style="edgeLabel;html=1;align=center;verticalAlign=middle;resizable=0;points=[];" vertex="1" connectable="0" parent="LmbCgK1vUzO_-XYj1HLt-31">
          <mxGeometry x="-0.3333" y="-1" relative="1" as="geometry">
            <mxPoint as="offset" />
          </mxGeometry>
        </mxCell>
        <mxCell id="LmbCgK1vUzO_-XYj1HLt-10" value="Zuweisung Kategorien 1, 2, 3" style="rounded=0;whiteSpace=wrap;html=1;fillColor=#e1d5e7;strokeColor=#9673a6;" vertex="1" parent="WIyWlLk6GJQsqaUBKTNV-1">
          <mxGeometry x="360" y="230" width="120" height="40" as="geometry" />
        </mxCell>
        <mxCell id="LmbCgK1vUzO_-XYj1HLt-32" style="edgeStyle=orthogonalEdgeStyle;rounded=0;orthogonalLoop=1;jettySize=auto;html=1;exitX=1;exitY=0.5;exitDx=0;exitDy=0;entryX=0;entryY=0.5;entryDx=0;entryDy=0;" edge="1" parent="WIyWlLk6GJQsqaUBKTNV-1" source="LmbCgK1vUzO_-XYj1HLt-11" target="LmbCgK1vUzO_-XYj1HLt-23">
          <mxGeometry relative="1" as="geometry" />
        </mxCell>
        <mxCell id="LmbCgK1vUzO_-XYj1HLt-35" value="x" style="edgeLabel;html=1;align=center;verticalAlign=middle;resizable=0;points=[];" vertex="1" connectable="0" parent="LmbCgK1vUzO_-XYj1HLt-32">
          <mxGeometry x="-0.2133" y="-1" relative="1" as="geometry">
            <mxPoint as="offset" />
          </mxGeometry>
        </mxCell>
        <mxCell id="LmbCgK1vUzO_-XYj1HLt-11" value="Zuweisung Kategorien 1, 2, 3" style="rounded=0;whiteSpace=wrap;html=1;fillColor=#e1d5e7;strokeColor=#9673a6;" vertex="1" parent="WIyWlLk6GJQsqaUBKTNV-1">
          <mxGeometry x="360" y="280" width="120" height="40" as="geometry" />
        </mxCell>
        <mxCell id="LmbCgK1vUzO_-XYj1HLt-33" style="edgeStyle=orthogonalEdgeStyle;rounded=0;orthogonalLoop=1;jettySize=auto;html=1;exitX=1;exitY=0.5;exitDx=0;exitDy=0;entryX=0;entryY=0.5;entryDx=0;entryDy=0;" edge="1" parent="WIyWlLk6GJQsqaUBKTNV-1" source="LmbCgK1vUzO_-XYj1HLt-12" target="LmbCgK1vUzO_-XYj1HLt-24">
          <mxGeometry relative="1" as="geometry" />
        </mxCell>
        <mxCell id="LmbCgK1vUzO_-XYj1HLt-34" value="x" style="edgeLabel;html=1;align=center;verticalAlign=middle;resizable=0;points=[];" vertex="1" connectable="0" parent="LmbCgK1vUzO_-XYj1HLt-33">
          <mxGeometry x="-0.1733" y="-2" relative="1" as="geometry">
            <mxPoint as="offset" />
          </mxGeometry>
        </mxCell>
        <mxCell id="LmbCgK1vUzO_-XYj1HLt-12" value="Zuweisung Kategorien 1, 2, 3" style="rounded=0;whiteSpace=wrap;html=1;fillColor=#e1d5e7;strokeColor=#9673a6;" vertex="1" parent="WIyWlLk6GJQsqaUBKTNV-1">
          <mxGeometry x="360" y="330" width="120" height="40" as="geometry" />
        </mxCell>
        <mxCell id="LmbCgK1vUzO_-XYj1HLt-39" style="edgeStyle=orthogonalEdgeStyle;rounded=0;orthogonalLoop=1;jettySize=auto;html=1;exitX=1;exitY=0.5;exitDx=0;exitDy=0;entryX=0;entryY=0.5;entryDx=0;entryDy=0;" edge="1" parent="WIyWlLk6GJQsqaUBKTNV-1" source="LmbCgK1vUzO_-XYj1HLt-19" target="LmbCgK1vUzO_-XYj1HLt-26">
          <mxGeometry relative="1" as="geometry" />
        </mxCell>
        <mxCell id="LmbCgK1vUzO_-XYj1HLt-19" value="Gewichtung&amp;nbsp;&lt;br&gt;&amp;nbsp;0 - 1" style="rounded=0;whiteSpace=wrap;html=1;fillColor=#fff2cc;strokeColor=#d6b656;" vertex="1" parent="WIyWlLk6GJQsqaUBKTNV-1">
          <mxGeometry x="530" y="130" width="80" height="40" as="geometry" />
        </mxCell>
        <mxCell id="LmbCgK1vUzO_-XYj1HLt-40" style="edgeStyle=orthogonalEdgeStyle;rounded=0;orthogonalLoop=1;jettySize=auto;html=1;exitX=1;exitY=0.5;exitDx=0;exitDy=0;entryX=0;entryY=0.5;entryDx=0;entryDy=0;" edge="1" parent="WIyWlLk6GJQsqaUBKTNV-1" source="LmbCgK1vUzO_-XYj1HLt-21" target="LmbCgK1vUzO_-XYj1HLt-26">
          <mxGeometry relative="1" as="geometry">
            <mxPoint x="660" y="180" as="targetPoint" />
          </mxGeometry>
        </mxCell>
        <mxCell id="LmbCgK1vUzO_-XYj1HLt-21" value="Gewichtung&amp;nbsp;&lt;br&gt;&amp;nbsp;0 - 1" style="rounded=0;whiteSpace=wrap;html=1;fillColor=#fff2cc;strokeColor=#d6b656;" vertex="1" parent="WIyWlLk6GJQsqaUBKTNV-1">
          <mxGeometry x="530" y="180" width="80" height="40" as="geometry" />
        </mxCell>
        <mxCell id="LmbCgK1vUzO_-XYj1HLt-41" value="" style="edgeStyle=orthogonalEdgeStyle;rounded=0;orthogonalLoop=1;jettySize=auto;html=1;" edge="1" parent="WIyWlLk6GJQsqaUBKTNV-1" source="LmbCgK1vUzO_-XYj1HLt-22" target="LmbCgK1vUzO_-XYj1HLt-26">
          <mxGeometry relative="1" as="geometry" />
        </mxCell>
        <mxCell id="LmbCgK1vUzO_-XYj1HLt-22" value="Gewichtung&amp;nbsp;&lt;br&gt;&amp;nbsp;0 - 1" style="rounded=0;whiteSpace=wrap;html=1;fillColor=#fff2cc;strokeColor=#d6b656;" vertex="1" parent="WIyWlLk6GJQsqaUBKTNV-1">
          <mxGeometry x="530" y="230" width="80" height="40" as="geometry" />
        </mxCell>
        <mxCell id="LmbCgK1vUzO_-XYj1HLt-44" style="edgeStyle=orthogonalEdgeStyle;rounded=0;orthogonalLoop=1;jettySize=auto;html=1;exitX=1;exitY=0.5;exitDx=0;exitDy=0;entryX=0;entryY=0.5;entryDx=0;entryDy=0;" edge="1" parent="WIyWlLk6GJQsqaUBKTNV-1" source="LmbCgK1vUzO_-XYj1HLt-23" target="LmbCgK1vUzO_-XYj1HLt-26">
          <mxGeometry relative="1" as="geometry" />
        </mxCell>
        <mxCell id="LmbCgK1vUzO_-XYj1HLt-23" value="Gewichtung&amp;nbsp;&lt;br&gt;&amp;nbsp;0 - 1" style="rounded=0;whiteSpace=wrap;html=1;fillColor=#fff2cc;strokeColor=#d6b656;" vertex="1" parent="WIyWlLk6GJQsqaUBKTNV-1">
          <mxGeometry x="530" y="280" width="80" height="40" as="geometry" />
        </mxCell>
        <mxCell id="LmbCgK1vUzO_-XYj1HLt-46" style="edgeStyle=orthogonalEdgeStyle;rounded=0;orthogonalLoop=1;jettySize=auto;html=1;exitX=1;exitY=0.5;exitDx=0;exitDy=0;entryX=0;entryY=0.5;entryDx=0;entryDy=0;" edge="1" parent="WIyWlLk6GJQsqaUBKTNV-1" source="LmbCgK1vUzO_-XYj1HLt-24" target="LmbCgK1vUzO_-XYj1HLt-26">
          <mxGeometry relative="1" as="geometry" />
        </mxCell>
        <mxCell id="LmbCgK1vUzO_-XYj1HLt-24" value="Gewichtung&amp;nbsp;&lt;br&gt;&amp;nbsp;0 - 1" style="rounded=0;whiteSpace=wrap;html=1;fillColor=#fff2cc;strokeColor=#d6b656;" vertex="1" parent="WIyWlLk6GJQsqaUBKTNV-1">
          <mxGeometry x="530" y="330" width="80" height="40" as="geometry" />
        </mxCell>
        <mxCell id="LmbCgK1vUzO_-XYj1HLt-52" style="edgeStyle=orthogonalEdgeStyle;rounded=0;orthogonalLoop=1;jettySize=auto;html=1;exitX=0.5;exitY=1;exitDx=0;exitDy=0;entryX=0;entryY=0.5;entryDx=0;entryDy=0;" edge="1" parent="WIyWlLk6GJQsqaUBKTNV-1" source="LmbCgK1vUzO_-XYj1HLt-26" target="LmbCgK1vUzO_-XYj1HLt-48">
          <mxGeometry relative="1" as="geometry" />
        </mxCell>
        <mxCell id="LmbCgK1vUzO_-XYj1HLt-26" value="Potenzielle Eignung" style="rounded=0;whiteSpace=wrap;html=1;fillColor=#d5e8d4;strokeColor=#82b366;" vertex="1" parent="WIyWlLk6GJQsqaUBKTNV-1">
          <mxGeometry x="650" y="230" width="100" height="40" as="geometry" />
        </mxCell>
        <mxCell id="LmbCgK1vUzO_-XYj1HLt-47" style="edgeStyle=orthogonalEdgeStyle;rounded=0;orthogonalLoop=1;jettySize=auto;html=1;exitX=1;exitY=0.5;exitDx=0;exitDy=0;entryX=0;entryY=0.5;entryDx=0;entryDy=0;" edge="1" parent="WIyWlLk6GJQsqaUBKTNV-1" source="LmbCgK1vUzO_-XYj1HLt-27" target="LmbCgK1vUzO_-XYj1HLt-28">
          <mxGeometry relative="1" as="geometry" />
        </mxCell>
        <mxCell id="LmbCgK1vUzO_-XYj1HLt-27" value="Autobahntrasse" style="rounded=0;whiteSpace=wrap;html=1;fillColor=#dae8fc;strokeColor=#6c8ebf;" vertex="1" parent="WIyWlLk6GJQsqaUBKTNV-1">
          <mxGeometry x="120" y="380" width="120" height="40" as="geometry" />
        </mxCell>
        <mxCell id="LmbCgK1vUzO_-XYj1HLt-50" style="edgeStyle=orthogonalEdgeStyle;rounded=0;orthogonalLoop=1;jettySize=auto;html=1;exitX=0.5;exitY=0;exitDx=0;exitDy=0;entryX=0;entryY=0.5;entryDx=0;entryDy=0;" edge="1" parent="WIyWlLk6GJQsqaUBKTNV-1" source="LmbCgK1vUzO_-XYj1HLt-28" target="LmbCgK1vUzO_-XYj1HLt-48">
          <mxGeometry relative="1" as="geometry" />
        </mxCell>
        <mxCell id="LmbCgK1vUzO_-XYj1HLt-53" value="x" style="edgeLabel;html=1;align=center;verticalAlign=middle;resizable=0;points=[];" vertex="1" connectable="0" parent="LmbCgK1vUzO_-XYj1HLt-50">
          <mxGeometry x="0.4778" y="-1" relative="1" as="geometry">
            <mxPoint as="offset" />
          </mxGeometry>
        </mxCell>
        <mxCell id="LmbCgK1vUzO_-XYj1HLt-28" value="EinschrÃ¤nkung" style="rounded=0;whiteSpace=wrap;html=1;fillColor=#f8cecc;strokeColor=#b85450;" vertex="1" parent="WIyWlLk6GJQsqaUBKTNV-1">
          <mxGeometry x="650" y="380" width="100" height="40" as="geometry" />
        </mxCell>
        <mxCell id="LmbCgK1vUzO_-XYj1HLt-48" value="Potenzielle Eignung" style="rounded=0;whiteSpace=wrap;html=1;fillColor=#60a917;fontColor=#ffffff;strokeColor=#2D7600;" vertex="1" parent="WIyWlLk6GJQsqaUBKTNV-1">
          <mxGeometry x="760" y="300" width="100" height="40" as="geometry" />
        </mxCell>
      </root>
    </mxGraphModel>
  </diagram>
</mxfile>
